<svg xmlns="http://www.w3.org/2000/svg" viewBox="0 0 1120 120" width="100%" role="img" aria-label="Doldskrift rendering of Deploy worker seven."><rect width="100%" height="100%" fill="#EEF1F4"/><g transform="translate(0,8) scale(0.05)"><line x1="605" y1="395" x2="395" y2="605" stroke="#12161A" stroke-width="36" stroke-linecap="round"/><circle cx="500" cy="240" r="20" fill="none" stroke="#12161A" stroke-width="28"/><circle cx="760" cy="500" r="20" fill="#12161A"/><circle cx="500" cy="760" r="70" fill="none" stroke="#12161A" stroke-width="36"/><circle cx="240" cy="500" r="70" fill="none" stroke="#12161A" stroke-width="36"/><path d="M500 500 L563 563 M500 500 L437 437" stroke="#12161A" stroke-width="36" fill="none" stroke-linecap="round"/><circle cx="720" cy="780" r="14" fill="#12161A"/><circle cx="760" cy="780" r="14" fill="#12161A"/></g><g transform="translate(56,8) scale(0.05)"><line x1="350" y1="500" x2="650" y2="500" stroke="#12161A" stroke-width="36" stroke-linecap="round"/><circle cx="500" cy="240" r="20" fill="#12161A"/><circle cx="760" cy="500" r="20" fill="#12161A"/><path d="M500 760 L500 670 M500 760 L500 850" stroke="#12161A" stroke-width="36" fill="none" stroke-linecap="round"/><path d="M170 500 L310 500 M240 570 L240 430" stroke="#12161A" stroke-width="36" fill="none"/><path d="M500 500 L500 410 M500 500 L500 590" stroke="#12161A" stroke-width="36" fill="none" stroke-linecap="round"/><circle cx="720" cy="780" r="14" fill="#12161A"/></g><g transform="translate(112,8) scale(0.05)"><line x1="395" y1="605" x2="605" y2="395" stroke="#12161A" stroke-width="36" stroke-linecap="round"/><circle cx="500" cy="240" r="20" fill="none" stroke="#12161A" stroke-width="28"/><circle cx="760" cy="500" r="55" fill="none" stroke="#12161A" stroke-width="36"/><path d="M500 760 L437 697 M500 760 L563 823" stroke="#12161A" stroke-width="36" fill="none" stroke-linecap="round"/><path d="M170 500 L310 500 M240 570 L240 430" stroke="#12161A" stroke-width="36" fill="none"/><circle cx="500" cy="500" r="55" fill="none" stroke="#12161A" stroke-width="36"/><circle cx="720" cy="780" r="14" fill="#12161A"/><circle cx="760" cy="780" r="14" fill="#12161A"/></g><g transform="translate(168,8) scale(0.05)"><line x1="605" y1="395" x2="395" y2="605" stroke="#12161A" stroke-width="36" stroke-linecap="round"/><circle cx="500" cy="240" r="20" fill="none" stroke="#12161A" stroke-width="28"/><path d="M760 500 L823 563 M760 500 L697 437" stroke="#12161A" stroke-width="36" fill="none" stroke-linecap="round"/><path d="M500 760 L563 823 M500 760 L437 697" stroke="#12161A" stroke-width="36" fill="none" stroke-linecap="round"/><path d="M170 500 L310 500 M240 570 L240 430" stroke="#12161A" stroke-width="36" fill="none"/><circle cx="500" cy="500" r="20" fill="#12161A"/><circle cx="720" cy="780" r="14" fill="#12161A"/><circle cx="760" cy="780" r="14" fill="#12161A"/></g><g transform="translate(224,8) scale(0.05)"><line x1="500" y1="650" x2="500" y2="350" stroke="#12161A" stroke-width="36" stroke-linecap="round"/><path d="M500 240 L410 240 M500 240 L590 240" stroke="#12161A" stroke-width="36" fill="none" stroke-linecap="round"/><path d="M760 500 L670 500 M760 500 L850 500" stroke="#12161A" stroke-width="36" fill="none" stroke-linecap="round"/><path d="M500 760 L410 760 M500 760 L590 760" stroke="#12161A" stroke-width="36" fill="none" stroke-linecap="round"/><path d="M170 500 L310 500 M240 570 L240 430" stroke="#12161A" stroke-width="36" fill="none"/><path d="M500 500 L410 500 M500 500 L590 500" stroke="#12161A" stroke-width="36" fill="none" stroke-linecap="round"/><circle cx="720" cy="780" r="14" fill="#12161A"/></g><g transform="translate(280,8) scale(0.05)"><line x1="650" y1="500" x2="350" y2="500" stroke="#12161A" stroke-width="36" stroke-linecap="round"/><circle cx="500" cy="240" r="20" fill="#12161A"/><path d="M690 500 L830 500 M760 570 L760 430" stroke="#12161A" stroke-width="36" fill="none"/><path d="M500 760 L500 850 M500 760 L500 670" stroke="#12161A" stroke-width="36" fill="none" stroke-linecap="round"/><path d="M170 500 L310 500 M240 570 L240 430" stroke="#12161A" stroke-width="36" fill="none"/><circle cx="500" cy="500" r="70" fill="none" stroke="#12161A" stroke-width="36"/><circle cx="720" cy="780" r="14" fill="#12161A"/><circle cx="760" cy="780" r="14" fill="#12161A"/><circle cx="800" cy="780" r="14" fill="#12161A"/></g><g transform="translate(336,8) scale(0.05)"><line x1="395" y1="605" x2="605" y2="395" stroke="#12161A" stroke-width="36" stroke-linecap="round"/><circle cx="500" cy="240" r="20" fill="none" stroke="#12161A" stroke-width="28"/><circle cx="760" cy="500" r="20" fill="none" stroke="#12161A" stroke-width="28"/><circle cx="500" cy="760" r="20" fill="#12161A"/><circle cx="240" cy="500" r="55" fill="none" stroke="#12161A" stroke-width="36"/><circle cx="500" cy="500" r="20" fill="none" stroke="#12161A" stroke-width="28"/><circle cx="720" cy="780" r="14" fill="#12161A"/><circle cx="760" cy="780" r="14" fill="#12161A"/></g><g transform="translate(392,8) scale(0.05)"><line x1="500" y1="650" x2="500" y2="350" stroke="#12161A" stroke-width="36" stroke-linecap="round"/><path d="M500 240 L410 240 M500 240 L590 240" stroke="#12161A" stroke-width="36" fill="none" stroke-linecap="round"/><circle cx="760" cy="500" r="14" fill="#0F6B5C"/><path d="M500 760 L410 760 M500 760 L590 760" stroke="#12161A" stroke-width="36" fill="none" stroke-linecap="round"/><path d="M170 500 L310 500 M240 570 L240 430" stroke="#12161A" stroke-width="36" fill="none"/><circle cx="500" cy="500" r="20" fill="#12161A"/><circle cx="720" cy="780" r="14" fill="#12161A"/><circle cx="760" cy="780" r="14" fill="#12161A"/><circle cx="800" cy="780" r="14" fill="#12161A"/></g><g transform="translate(448,8) scale(0.05)"><line x1="500" y1="650" x2="500" y2="350" stroke="#12161A" stroke-width="36" stroke-linecap="round"/><path d="M500 240 L410 240 M500 240 L590 240" stroke="#12161A" stroke-width="36" fill="none" stroke-linecap="round"/><path d="M760 500 L670 500 M760 500 L850 500" stroke="#12161A" stroke-width="36" fill="none" stroke-linecap="round"/><path d="M500 760 L410 760 M500 760 L590 760" stroke="#12161A" stroke-width="36" fill="none" stroke-linecap="round"/><path d="M170 500 L310 500 M240 570 L240 430" stroke="#12161A" stroke-width="36" fill="none"/><path d="M500 500 L410 500 M500 500 L590 500" stroke="#12161A" stroke-width="36" fill="none" stroke-linecap="round"/><circle cx="720" cy="780" r="14" fill="#12161A"/></g><g transform="translate(504,8) scale(0.05)"><line x1="605" y1="605" x2="395" y2="395" stroke="#12161A" stroke-width="36" stroke-linecap="round"/><circle cx="500" cy="240" r="70" fill="none" stroke="#12161A" stroke-width="36"/><circle cx="760" cy="500" r="55" fill="none" stroke="#12161A" stroke-width="36"/><path d="M500 760 L437 823 M500 760 L563 697" stroke="#12161A" stroke-width="36" fill="none" stroke-linecap="round"/><path d="M170 500 L310 500 M240 570 L240 430" stroke="#12161A" stroke-width="36" fill="none"/><circle cx="500" cy="500" r="14" fill="#0F6B5C"/><circle cx="720" cy="780" r="14" fill="#12161A"/><circle cx="760" cy="780" r="14" fill="#12161A"/></g><g transform="translate(560,8) scale(0.05)"><line x1="500" y1="350" x2="500" y2="650" stroke="#12161A" stroke-width="36" stroke-linecap="round"/><path d="M500 240 L590 240 M500 240 L410 240" stroke="#12161A" stroke-width="36" fill="none" stroke-linecap="round"/><circle cx="760" cy="500" r="70" fill="none" stroke="#12161A" stroke-width="36"/><path d="M500 760 L590 760 M500 760 L410 760" stroke="#12161A" stroke-width="36" fill="none" stroke-linecap="round"/><path d="M170 500 L310 500 M240 570 L240 430" stroke="#12161A" stroke-width="36" fill="none"/><circle cx="500" cy="500" r="20" fill="none" stroke="#12161A" stroke-width="28"/><circle cx="720" cy="780" r="14" fill="#12161A"/></g><g transform="translate(616,8) scale(0.05)"><line x1="350" y1="500" x2="650" y2="500" stroke="#12161A" stroke-width="36" stroke-linecap="round"/><circle cx="500" cy="240" r="20" fill="#12161A"/><circle cx="760" cy="500" r="20" fill="#12161A"/><path d="M500 760 L500 670 M500 760 L500 850" stroke="#12161A" stroke-width="36" fill="none" stroke-linecap="round"/><path d="M170 500 L310 500 M240 570 L240 430" stroke="#12161A" stroke-width="36" fill="none"/><path d="M500 500 L500 410 M500 500 L500 590" stroke="#12161A" stroke-width="36" fill="none" stroke-linecap="round"/><circle cx="720" cy="780" r="14" fill="#12161A"/></g><g transform="translate(672,8) scale(0.05)"><line x1="605" y1="605" x2="395" y2="395" stroke="#12161A" stroke-width="36" stroke-linecap="round"/><circle cx="500" cy="240" r="70" fill="none" stroke="#12161A" stroke-width="36"/><circle cx="760" cy="500" r="55" fill="none" stroke="#12161A" stroke-width="36"/><path d="M500 760 L437 823 M500 760 L563 697" stroke="#12161A" stroke-width="36" fill="none" stroke-linecap="round"/><path d="M170 500 L310 500 M240 570 L240 430" stroke="#12161A" stroke-width="36" fill="none"/><circle cx="500" cy="500" r="14" fill="#0F6B5C"/><circle cx="720" cy="780" r="14" fill="#12161A"/><circle cx="760" cy="780" r="14" fill="#12161A"/></g><g transform="translate(728,8) scale(0.05)"><line x1="395" y1="605" x2="605" y2="395" stroke="#12161A" stroke-width="36" stroke-linecap="round"/><circle cx="500" cy="240" r="20" fill="none" stroke="#12161A" stroke-width="28"/><circle cx="760" cy="500" r="20" fill="none" stroke="#12161A" stroke-width="28"/><circle cx="500" cy="760" r="20" fill="#12161A"/><circle cx="240" cy="500" r="55" fill="none" stroke="#12161A" stroke-width="36"/><circle cx="500" cy="500" r="20" fill="none" stroke="#12161A" stroke-width="28"/><circle cx="720" cy="780" r="14" fill="#12161A"/><circle cx="760" cy="780" r="14" fill="#12161A"/></g><g transform="translate(784,8) scale(0.05)"><line x1="500" y1="350" x2="500" y2="650" stroke="#12161A" stroke-width="36" stroke-linecap="round"/><path d="M500 240 L590 240 M500 240 L410 240" stroke="#12161A" stroke-width="36" fill="none" stroke-linecap="round"/><circle cx="760" cy="500" r="55" fill="none" stroke="#12161A" stroke-width="36"/><path d="M500 760 L590 760 M500 760 L410 760" stroke="#12161A" stroke-width="36" fill="none" stroke-linecap="round"/><path d="M170 500 L310 500 M240 570 L240 430" stroke="#12161A" stroke-width="36" fill="none"/><path d="M430 500 L570 500 M500 570 L500 430" stroke="#12161A" stroke-width="36" fill="none"/><circle cx="720" cy="780" r="14" fill="#12161A"/></g><g transform="translate(840,8) scale(0.05)"><line x1="350" y1="500" x2="650" y2="500" stroke="#12161A" stroke-width="36" stroke-linecap="round"/><circle cx="500" cy="240" r="20" fill="#12161A"/><circle cx="760" cy="500" r="20" fill="#12161A"/><path d="M500 760 L500 670 M500 760 L500 850" stroke="#12161A" stroke-width="36" fill="none" stroke-linecap="round"/><path d="M170 500 L310 500 M240 570 L240 430" stroke="#12161A" stroke-width="36" fill="none"/><path d="M500 500 L500 410 M500 500 L500 590" stroke="#12161A" stroke-width="36" fill="none" stroke-linecap="round"/><circle cx="720" cy="780" r="14" fill="#12161A"/></g><g transform="translate(896,8) scale(0.05)"><line x1="395" y1="395" x2="605" y2="605" stroke="#12161A" stroke-width="36" stroke-linecap="round"/><circle cx="500" cy="240" r="70" fill="none" stroke="#12161A" stroke-width="36"/><circle cx="760" cy="500" r="14" fill="#0F6B5C"/><path d="M500 760 L563 697 M500 760 L437 823" stroke="#12161A" stroke-width="36" fill="none" stroke-linecap="round"/><path d="M170 500 L310 500 M240 570 L240 430" stroke="#12161A" stroke-width="36" fill="none"/><circle cx="500" cy="500" r="20" fill="none" stroke="#12161A" stroke-width="28"/><circle cx="720" cy="780" r="14" fill="#12161A"/><circle cx="760" cy="780" r="14" fill="#12161A"/><circle cx="800" cy="780" r="14" fill="#12161A"/><circle cx="840" cy="780" r="14" fill="#12161A"/></g><g transform="translate(952,8) scale(0.05)"><line x1="350" y1="500" x2="650" y2="500" stroke="#12161A" stroke-width="36" stroke-linecap="round"/><circle cx="500" cy="240" r="20" fill="#12161A"/><circle cx="760" cy="500" r="20" fill="#12161A"/><path d="M500 760 L500 670 M500 760 L500 850" stroke="#12161A" stroke-width="36" fill="none" stroke-linecap="round"/><path d="M170 500 L310 500 M240 570 L240 430" stroke="#12161A" stroke-width="36" fill="none"/><path d="M500 500 L500 410 M500 500 L500 590" stroke="#12161A" stroke-width="36" fill="none" stroke-linecap="round"/><circle cx="720" cy="780" r="14" fill="#12161A"/></g><g transform="translate(1008,8) scale(0.05)"><line x1="395" y1="395" x2="605" y2="605" stroke="#12161A" stroke-width="36" stroke-linecap="round"/><circle cx="500" cy="240" r="70" fill="none" stroke="#12161A" stroke-width="36"/><path d="M760 500 L823 437 M760 500 L697 563" stroke="#12161A" stroke-width="36" fill="none" stroke-linecap="round"/><path d="M500 760 L563 697 M500 760 L437 823" stroke="#12161A" stroke-width="36" fill="none" stroke-linecap="round"/><path d="M170 500 L310 500 M240 570 L240 430" stroke="#12161A" stroke-width="36" fill="none"/><circle cx="500" cy="500" r="70" fill="none" stroke="#12161A" stroke-width="36"/><circle cx="720" cy="780" r="14" fill="#12161A"/><circle cx="760" cy="780" r="14" fill="#12161A"/></g><g transform="translate(1064,8) scale(0.05)"><line x1="395" y1="395" x2="605" y2="605" stroke="#12161A" stroke-width="36" stroke-linecap="round"/><circle cx="500" cy="240" r="70" fill="none" stroke="#12161A" stroke-width="36"/><path d="M760 500 L823 437 M760 500 L697 563" stroke="#12161A" stroke-width="36" fill="none" stroke-linecap="round"/><circle cx="500" cy="760" r="20" fill="#12161A"/><circle cx="240" cy="500" r="55" fill="none" stroke="#12161A" stroke-width="36"/><circle cx="500" cy="500" r="70" fill="none" stroke="#12161A" stroke-width="36"/><circle cx="720" cy="780" r="14" fill="#12161A"/><circle cx="760" cy="780" r="14" fill="#12161A"/><circle cx="800" cy="780" r="14" fill="#12161A"/></g></svg>
